<?xml version="1.0" encoding="utf-8"?>
<!-- Generator: Adobe Illustrator 17.1.0, SVG Export Plug-In . SVG Version: 6.00 Build 0)  -->
<!DOCTYPE svg PUBLIC "-//W3C//DTD SVG 1.1//EN" "http://www.w3.org/Graphics/SVG/1.1/DTD/svg11.dtd">
<svg version="1.1" id="Layer_1" xmlns="http://www.w3.org/2000/svg" xmlns:xlink="http://www.w3.org/1999/xlink" x="0px" y="0px"
	 width="149px" height="64px" viewBox="231.3 363.8 149 64" enable-background="new 231.3 363.8 149 64" xml:space="preserve">
<g id="Ellipse_1_1_" enable-background="new    ">
</g>
<g id="А_1_" enable-background="new    ">
</g>
<g id="МОЯ_АПТЕКА_1_" enable-background="new    ">
	<g>
		<g id="Ellipse_1">
			<g>
				<path fill="#B21D28" d="M263.3,369.9c14.3,0,26,11.7,26,26s-11.6,26-26,26c-14.4,0-26-11.7-26-26S248.9,369.9,263.3,369.9
					 M263.3,363.9c-17.7,0-32,14.3-32,32s14.3,32,32,32s32-14.3,32-32C295.2,378.2,280.9,363.9,263.3,363.9L263.3,363.9z"/>
			</g>
		</g>
		<g id="А">
			<g>
				<path fill="#B21D28" d="M263.5,363.8l-24.2,52.8h6.8l5.8-12.7h23.3l5.8,12.7h6.8L263.5,363.8z M254.4,398.1l9-20.5l9,20.5H254.4
					z"/>
			</g>
		</g>
		<g id="МОЯ_АПТЕКА">
			<g>
				<path fill="#001D28" d="M315.1,382.9l7.4,16l7.4-16l2.6,15.5h3.1l-4.4-24.5l-8.7,18.4l-8.7-18.4l-4.4,24.5h3.1L315.1,382.9z
					 M349.3,398.8c3.4,0,6.3-1.2,8.8-3.7s3.7-5.4,3.7-8.8c0-3.4-1.2-6.3-3.7-8.8s-5.4-3.7-8.8-3.7s-6.3,1.2-8.8,3.7
					s-3.7,5.4-3.7,8.8c0,3.4,1.2,6.3,3.7,8.8C343,397.6,345.9,398.8,349.3,398.8z M342.5,379.5c1.8-1.9,4.1-2.8,6.8-2.8
					c2.7,0,4.9,0.9,6.8,2.8c1.8,1.9,2.8,4.2,2.8,6.9c0,2.7-0.9,5-2.8,6.9c-1.8,1.9-4.1,2.8-6.8,2.8s-4.9-0.9-6.8-2.8
					c-1.8-1.9-2.7-4.2-2.7-6.9C339.8,383.7,340.7,381.4,342.5,379.5z M366.6,398.3l6.9-10.1h1.3v10.1h3v-23.9h-5
					c-2.6,0-4.6,0.6-6.1,1.9c-1.4,1.3-2.2,3.1-2.2,5.3c0,1.7,0.5,3.1,1.6,4.2c1.1,1.1,2.5,1.8,4.3,2.1l-7.5,10.4H366.6z
					 M367.6,381.4c0-2.8,1.9-4.2,5.6-4.2h1.7v8.6h-1.3C369.6,385.8,367.6,384.3,367.6,381.4z M308.9,416.6h1.9l1.7-3.7h6.7l1.7,3.7
					h2l-7-15.2L308.9,416.6z M318.5,411.3h-5.1l2.6-5.9L318.5,411.3z M323.8,416.6h1.8v-12.9h6.8v12.9h1.8V402h-10.4V416.6z
					 M335.5,403.7h3.6v12.9h1.8v-12.9h3.6V402h-9V403.7z M345.8,416.6h7.8v-1.7h-6v-5.5h5.8v-1.7h-5.8v-4.1h6v-1.7h-7.8V416.6z
					 M373.3,401.4l-6.9,15l-6.6-7.5l6.7-6.9h-2.4l-6.2,6.5V402h-1.8v14.6h1.8v-7.3l6.2,7.3h4.1l1.7-3.7h6.7l1.7,3.7h2L373.3,401.4z
					 M370.7,411.3l2.6-5.9l2.6,5.9H370.7z"/>
			</g>
		</g>
	</g>
</g>
</svg>
