<?xml version="1.0" encoding="utf-8"?>
<!-- Generator: Adobe Illustrator 17.1.0, SVG Export Plug-In . SVG Version: 6.00 Build 0)  -->
<!DOCTYPE svg PUBLIC "-//W3C//DTD SVG 1.1//EN" "http://www.w3.org/Graphics/SVG/1.1/DTD/svg11.dtd">
<svg version="1.1" xmlns="http://www.w3.org/2000/svg" xmlns:xlink="http://www.w3.org/1999/xlink" x="0px" y="0px"
	 viewBox="0 0 149 64" enable-background="new 0 0 149 64" xml:space="preserve">
<g id="Ellipse_1_1_" enable-background="new    ">
</g>
<g id="А_1_" enable-background="new    ">
</g>
<g id="МОЯ_АПТЕКА_1_" enable-background="new    ">
	<g>
		<g id="Ellipse_1">
			<g>
				<path fill="#B21D28" d="M32,6c14.3,0,26,11.7,26,26c0,14.3-11.6,26-26,26C17.6,58,6,46.3,6,32C6,17.7,17.6,6,32,6 M32,0
					C14.3,0,0,14.3,0,32c0,17.7,14.3,32,32,32s32-14.3,32-32C63.9,14.3,49.6,0,32,0L32,0z"/>
			</g>
		</g>
		<g id="А">
			<g>
				<path fill-rule="evenodd" clip-rule="evenodd" fill="#B21D28" d="M32.2-0.1L8,52.8h6.8l5.8-12.7h23.3l5.8,12.7h6.8L32.2-0.1z
					 M23.1,34.3l9-20.5l9,20.5H23.1z"/>
			</g>
		</g>
		<g id="МОЯ_АПТЕКА">
			<g>
				<path fill-rule="evenodd" clip-rule="evenodd" fill="#001D28" d="M83.7,19l7.4,16l7.4-16l2.6,15.5h3.1l-4.4-24.5l-8.7,18.4
					l-8.7-18.4l-4.4,24.5h3.1L83.7,19z M117.9,35c3.4,0,6.3-1.2,8.8-3.7c2.5-2.5,3.7-5.4,3.7-8.8c0-3.4-1.2-6.3-3.7-8.8
					c-2.5-2.5-5.4-3.7-8.8-3.7c-3.4,0-6.3,1.2-8.8,3.7c-2.5,2.5-3.7,5.4-3.7,8.8c0,3.4,1.2,6.3,3.7,8.8
					C111.6,33.8,114.5,35,117.9,35z M111.1,15.6c1.8-1.9,4.1-2.8,6.8-2.8c2.7,0,4.9,0.9,6.8,2.8c1.8,1.9,2.8,4.2,2.8,6.9
					c0,2.7-0.9,5-2.8,6.9c-1.8,1.9-4.1,2.8-6.8,2.8c-2.7,0-4.9-0.9-6.8-2.8c-1.8-1.9-2.7-4.2-2.7-6.9
					C108.4,19.8,109.3,17.5,111.1,15.6z M135.2,34.5l6.9-10.1h1.3v10.1h3V10.6h-5c-2.6,0-4.6,0.6-6.1,1.9c-1.4,1.3-2.2,3.1-2.2,5.3
					c0,1.7,0.5,3.1,1.6,4.2c1.1,1.1,2.5,1.8,4.3,2.1l-7.5,10.4H135.2z M136.2,17.5c0-2.8,1.9-4.2,5.6-4.2h1.7v8.6h-1.3
					C138.2,21.9,136.2,20.4,136.2,17.5z M77.6,52.8h1.9l1.7-3.7h6.7l1.7,3.7h2l-7-15.2L77.6,52.8z M87.1,47.5H82l2.6-5.9L87.1,47.5z
					 M92.4,52.8h1.8V39.9h6.8v12.9h1.8V38.2H92.4V52.8z M104.1,39.9h3.6v12.9h1.8V39.9h3.6v-1.7h-9V39.9z M114.4,52.8h7.8v-1.7h-6
					v-5.5h5.8v-1.7h-5.8v-4.1h6v-1.7h-7.8V52.8z M141.9,37.6l-6.9,15l-6.6-7.5l6.7-6.9h-2.4l-6.2,6.5v-6.5h-1.8v14.6h1.8v-7.3
					l6.2,7.3h4.1l1.7-3.7h6.7l1.7,3.7h2L141.9,37.6z M139.3,47.5l2.6-5.9l2.6,5.9H139.3z"/>
			</g>
		</g>
	</g>
</g>
</svg>
